<svg xmlns="http://www.w3.org/2000/svg" viewBox="0 0 663 742">
  <!-- Dezabin — standalone, self-contained: the letters are outlines, so this file needs no font, no CSS and no network. Generated by scripts/generate-wordmark.mjs; do not hand-edit. The D alone, carrying its own slice of the wordmark's ramp. -->
  <defs><linearGradient id="g" gradientUnits="userSpaceOnUse" x1="0" y1="0" x2="663" y2="742"><stop offset="0" stop-color="#2a3c40"/><stop offset="1" stop-color="#2d4046"/></linearGradient></defs>
  <g fill="url(#g)">
    <path d="M267 742L26 742Q0 742 0 715L0 715L0 23Q0 0 24 0L24 0Q48 0 81 0Q114 0 149.5 0Q185 0 217 0Q249 0 269 1L269 1Q404 5 491 52Q578 99 620.5 180Q663 261 663 369L663 369Q663 480 619 564Q575 648 487 695Q399 742 267 742L267 742M215 601L215 601L228 601Q336 601 393.5 548.5Q451 496 451 368L451 368Q451 251 400 196Q349 141 240 141L240 141L212 141Q202 141 202 155L202 155L202 587Q202 601 215 601"/>
  </g>
</svg>
